CalSansUI-Regular.ufo
<glyph name="H" format="2">
  <advance width="723.25"/>
  <unicode hex="0048"/>
  <anchor x="365.0" y="0.0" name="bottom"/>
  <anchor x="545.25" y="0.0" name="ogonek"/>
  <anchor x="365.0" y="700.0" name="top"/>
  <outline>
    <contour>
      <point x="81.5" y="0.0" type="line"/>
      <point x="178.0" y="0.0" type="line"/>
      <point x="178.0" y="318.25" type="line"/>
      <point x="545.25" y="318.25" type="line"/>
      <point x="545.25" y="0.0" type="line"/>
      <point x="641.75" y="0.0" type="line"/>
      <point x="641.75" y="700.0" type="line"/>
      <point x="545.25" y="700.0" type="line"/>
      <point x="545.25" y="409.0" type="line"/>
      <point x="178.0" y="409.0" type="line"/>
      <point x="178.0" y="700.0" type="line"/>
      <point x="81.5" y="700.0" type="line"/>
    </contour>
  </outline>
</glyph>
<glyph name="P" format="2">
  <advance width="586.75"/>
  <unicode hex="0050"/>
  <anchor x="129.75" y="0.0" name="bottom"/>
  <anchor x="178.0" y="0.0" name="ogonek"/>
  <anchor x="292.5" y="700.0" name="top"/>
  <outline>
    <contour>
      <point x="81.5" y="0.0" type="line"/>
      <point x="178.0" y="0.0" type="line"/>
      <point x="178.0" y="283.75" type="line"/>
      <point x="311.0" y="283.75" type="line" smooth="yes"/>
      <point x="445.5" y="283.75"/>
      <point x="545.25" y="353.0"/>
      <point x="545.25" y="492.75" type="curve" smooth="yes"/>
      <point x="545.25" y="631.5"/>
      <point x="444.75" y="700.0"/>
      <point x="311.0" y="700.0" type="curve" smooth="yes"/>
      <point x="81.5" y="700.0" type="line"/>
    </contour>
    <contour>
      <point x="178.0" y="374.5" type="line"/>
      <point x="178.0" y="609.25" type="line"/>
      <point x="303.0" y="609.25" type="line" smooth="yes"/>
      <point x="389.5" y="609.25"/>
      <point x="446.0" y="578.0"/>
      <point x="446.0" y="492.5" type="curve" smooth="yes"/>
      <point x="446.0" y="405.25"/>
      <point x="389.5" y="374.5"/>
      <point x="303.0" y="374.5" type="curve" smooth="yes"/>
    </contour>
  </outline>
</glyph>
<glyph name="Q" format="2">
  <advance width="782.0"/>
  <unicode hex="0051"/>
  <anchor x="390.0" y="0.0" name="bottom"/>
  <anchor x="383.0" y="338.0" name="center"/>
  <anchor x="487.0" y="0.0" name="ogonek"/>
  <anchor x="390.0" y="700.0" name="top"/>
  <anchor x="596.25" y="700.0" name="topright"/>
  <outline>
    <contour>
      <point x="608.75" y="-57.75" type="line"/>
      <point x="712.0" y="-57.75" type="line"/>
      <point x="596.5" y="116.25" type="line"/>
      <point x="590.75" y="138.25" type="line"/>
      <point x="509.5" y="257.25" type="line"/>
      <point x="406.25" y="257.25" type="line"/>
      <point x="524.75" y="79.75" type="line"/>
      <point x="529.25" y="59.75" type="line"/>
    </contour>
    <component base="O"/>
  </outline>
</glyph>
<glyph name="m" format="2">
  <advance width="891.0"/>
  <unicode hex="006D"/>
  <anchor x="445.75" y="0.0" name="bottom"/>
  <anchor x="730.75" y="0.0" name="ogonek"/>
  <anchor x="452.75" y="493.75" name="top"/>
  <outline>
    <contour>
      <point x="71.5" y="0.0" type="line"/>
      <point x="165.25" y="0.0" type="line"/>
      <point x="165.25" y="302.75" type="line" smooth="yes"/>
      <point x="165.25" y="375.0"/>
      <point x="211.5" y="421.5"/>
      <point x="284.25" y="421.5" type="curve" smooth="yes"/>
      <point x="364.5" y="421.5"/>
      <point x="403.5" y="375.0"/>
      <point x="403.5" y="302.75" type="curve" smooth="yes"/>
      <point x="403.5" y="0.0" type="line"/>
      <point x="497.25" y="0.0" type="line"/>
      <point x="497.25" y="308.0" type="line" smooth="yes"/>
      <point x="497.25" y="377.25"/>
      <point x="542.5" y="421.5"/>
      <point x="614.25" y="421.5" type="curve" smooth="yes"/>
      <point x="685.75" y="421.5"/>
      <point x="730.75" y="375.0"/>
      <point x="730.75" y="302.75" type="curve" smooth="yes"/>
      <point x="730.75" y="0.0" type="line"/>
      <point x="824.5" y="0.0" type="line"/>
      <point x="824.5" y="325.25" type="line" smooth="yes"/>
      <point x="824.5" y="428.75"/>
      <point x="743.5" y="506.75"/>
      <point x="635.0" y="506.75" type="curve" smooth="yes"/>
      <point x="558.75" y="506.75"/>
      <point x="494.5" y="473.0"/>
      <point x="470.5" y="420.25" type="curve"/>
      <point x="464.5" y="420.25" type="line"/>
      <point x="440.25" y="473.0"/>
      <point x="383.0" y="506.75"/>
      <point x="313.0" y="506.75" type="curve" smooth="yes"/>
      <point x="251.0" y="506.75"/>
      <point x="194.0" y="476.5"/>
      <point x="167.25" y="427.25" type="curve"/>
      <point x="161.25" y="427.25" type="line"/>
      <point x="161.25" y="493.75" type="line"/>
      <point x="71.5" y="493.75" type="line"/>
    </contour>
  </outline>
</glyph>
<glyph name="s" format="2">
  <advance width="471.5"/>
  <unicode hex="0073"/>
  <anchor x="236.75" y="0.0" name="bottom"/>
  <anchor x="313.75" y="0.0" name="ogonek"/>
  <anchor x="244.75" y="493.75" name="top"/>
  <outline>
    <contour>
      <point x="236.5" y="-13.0" type="curve" smooth="yes"/>
      <point x="337.75" y="-13.0"/>
      <point x="422.25" y="45.5"/>
      <point x="422.25" y="142.5" type="curve" smooth="yes"/>
      <point x="422.25" y="223.5"/>
      <point x="371.5" y="266.5"/>
      <point x="253.25" y="293.0" type="curve" smooth="yes"/>
      <point x="178.0" y="310.25"/>
      <point x="155.75" y="329.75"/>
      <point x="155.75" y="366.25" type="curve" smooth="yes"/>
      <point x="155.75" y="401.25"/>
      <point x="195.0" y="428.5"/>
      <point x="244.5" y="428.5" type="curve" smooth="yes"/>
      <point x="289.0" y="428.5"/>
      <point x="323.0" y="409.25"/>
      <point x="351.0" y="365.0" type="curve"/>
      <point x="421.0" y="417.75" type="line"/>
      <point x="377.25" y="478.5"/>
      <point x="327.25" y="506.75"/>
      <point x="240.75" y="506.75" type="curve" smooth="yes"/>
      <point x="137.0" y="506.75"/>
      <point x="62.0" y="441.75"/>
      <point x="62.0" y="359.75" type="curve" smooth="yes"/>
      <point x="62.0" y="279.5"/>
      <point x="114.25" y="233.75"/>
      <point x="219.0" y="209.75" type="curve" smooth="yes"/>
      <point x="296.25" y="192.25"/>
      <point x="328.25" y="172.25"/>
      <point x="328.25" y="134.75" type="curve" smooth="yes"/>
      <point x="328.25" y="91.0"/>
      <point x="287.0" y="68.75"/>
      <point x="232.5" y="68.75" type="curve" smooth="yes"/>
      <point x="178.25" y="68.75"/>
      <point x="142.5" y="91.25"/>
      <point x="100.25" y="135.25" type="curve"/>
      <point x="38.5" y="71.25" type="line"/>
      <point x="97.0" y="14.0"/>
      <point x="151.0" y="-13.0"/>
    </contour>
  </outline>
</glyph>
<glyph name="y" format="2">
  <advance width="529.5"/>
  <unicode hex="0079"/>
  <anchor x="414.75" y="0.0" name="bottom"/>
  <anchor x="148.75" y="-213.0" name="ogonek"/>
  <anchor x="267.75" y="493.75" name="top"/>
  <anchor x="268.75" y="432.75" name="top_hook"/>
  <outline>
    <contour>
      <point x="82.25" y="-223.0" type="curve" smooth="yes"/>
      <point x="164.25" y="-223.0"/>
      <point x="234.25" y="-197.0"/>
      <point x="289.25" y="-65.75" type="curve" smooth="yes"/>
      <point x="525.75" y="493.75" type="line"/>
      <point x="418.25" y="493.75" type="line"/>
      <point x="304.75" y="184.75" type="line" smooth="yes"/>
      <point x="294.75" y="157.75"/>
      <point x="277.5" y="111.5"/>
      <point x="270.25" y="76.75" type="curve"/>
      <point x="263.75" y="76.75" type="line"/>
      <point x="256.5" y="111.5"/>
      <point x="237.0" y="158.5"/>
      <point x="227.0" y="184.75" type="curve" smooth="yes"/>
      <point x="112.75" y="493.75" type="line"/>
      <point x="4.5" y="493.75" type="line"/>
      <point x="208.75" y="0.75" type="line"/>
      <point x="190.5" y="-44.25" type="line" smooth="yes"/>
      <point x="162.25" y="-113.25"/>
      <point x="125.25" y="-133.0"/>
      <point x="80.75" y="-133.0" type="curve" smooth="yes"/>
      <point x="57.25" y="-133.0"/>
      <point x="40.0" y="-130.25"/>
      <point x="19.25" y="-123.5" type="curve"/>
      <point x="3.75" y="-211.5" type="line"/>
      <point x="26.25" y="-218.5"/>
      <point x="50.75" y="-223.0"/>
    </contour>
  </outline>
</glyph>
<glyph name="brokenbar" format="2">
  <advance width="247.5"/>
  <unicode hex="00A6"/>
  <outline>
    <contour>
      <point x="85.25" y="375.0" type="line"/>
      <point x="162.25" y="375.0" type="line"/>
      <point x="162.25" y="900.0" type="line"/>
      <point x="85.25" y="900.0" type="line"/>
      <point x="85.25" y="535.0" type="line"/>
    </contour>
    <contour>
      <point x="162.25" y="305.0" type="line"/>
      <point x="85.25" y="305.0" type="line"/>
      <point x="85.25" y="3.0" type="line"/>
      <point x="85.25" y="-220.0" type="line"/>
      <point x="162.25" y="-220.0" type="line"/>
    </contour>
  </outline>
</glyph>
<glyph name="jdotless" format="2">
  <advance width="236.75"/>
  <unicode hex="0237"/>
  <anchor x="28.0" y="-233.0" name="bottom"/>
  <anchor x="42.0" y="-233.0" name="ogonek"/>
  <anchor x="118.25" y="493.75" name="top"/>
  <outline>
    <contour>
      <point x="16.75" y="-233.0" type="curve" smooth="yes"/>
      <point x="106.25" y="-233.0"/>
      <point x="165.25" y="-182.75"/>
      <point x="165.25" y="-79.75" type="curve" smooth="yes"/>
      <point x="165.25" y="493.75" type="line"/>
      <point x="71.5" y="493.75" type="line"/>
      <point x="71.5" y="-75.75" type="line" smooth="yes"/>
      <point x="71.5" y="-129.75"/>
      <point x="44.25" y="-149.0"/>
      <point x="5.25" y="-149.0" type="curve" smooth="yes"/>
      <point x="-10.25" y="-149.0"/>
      <point x="-21.75" y="-147.0"/>
      <point x="-39.25" y="-141.25" type="curve"/>
      <point x="-53.75" y="-223.75" type="line"/>
      <point x="-29.5" y="-230.0"/>
      <point x="-7.25" y="-233.0"/>
    </contour>
  </outline>
</glyph>
<glyph name="circumflexcomb" format="2">
  <unicode hex="0302"/>
  <anchor x="0.0" y="487.75" name="_top"/>
  <anchor x="0.0" y="679.75" name="top"/>
  <outline>
    <contour>
      <point x="-137.5" y="548.0" type="line"/>
      <point x="-53.5" y="548.0" type="line"/>
      <point x="0.75" y="647.75" type="line"/>
      <point x="3.0" y="647.75" type="line"/>
      <point x="55.5" y="548.0" type="line"/>
      <point x="137.5" y="548.0" type="line"/>
      <point x="34.25" y="707.0" type="line"/>
      <point x="-30.5" y="707.0" type="line"/>
    </contour>
  </outline>
</glyph>
<glyph name="fraction" format="2">
  <advance width="596.5"/>
  <unicode hex="2044"/>
  <outline>
    <contour>
      <point x="-53.75" y="0.0" type="line"/>
      <point x="33.5" y="0.0" type="line"/>
      <point x="650.5" y="700.0" type="line"/>
      <point x="563.25" y="700.0" type="line"/>
    </contour>
  </outline>
</glyph>
<glyph name="summation" format="2">
  <advance width="562.5"/>
  <unicode hex="2211"/>
  <outline>
    <contour>
      <point x="163.75" y="-114.0" type="curve" smooth="yes"/>
      <point x="369.5" y="253.0" type="line"/>
      <point x="166.0" y="594.0" type="line" smooth="yes"/>
      <point x="154.5" y="613.0"/>
      <point x="148.0" y="623.0"/>
      <point x="143.0" y="626.0" type="curve"/>
      <point x="145.0" y="630.0" type="line"/>
      <point x="150.0" y="628.0"/>
      <point x="164.0" y="629.0"/>
      <point x="188.0" y="629.0" type="curve" smooth="yes"/>
      <point x="523.0" y="629.0" type="line"/>
      <point x="523.0" y="700.0" type="line"/>
      <point x="20.0" y="700.0" type="line"/>
      <point x="20.0" y="685.0" type="line"/>
      <point x="290.0" y="235.75" type="line"/>
      <point x="290.0" y="261.75" type="line"/>
      <point x="20.0" y="-205.0" type="line"/>
      <point x="20.0" y="-220.0" type="line"/>
      <point x="523.0" y="-220.0" type="line"/>
      <point x="523.0" y="-149.0" type="line"/>
      <point x="185.75" y="-149.0" type="line" smooth="yes"/>
      <point x="171.75" y="-149.0"/>
      <point x="151.75" y="-147.0"/>
      <point x="143.75" y="-150.0" type="curve"/>
      <point x="140.75" y="-146.0" type="line"/>
      <point x="150.75" y="-139.0"/>
      <point x="158.0" y="-124.0"/>
    </contour>
  </outline>
</glyph>
<glyph name="upBlackSmallTriangle" format="2">
  <advance width="314.5"/>
  <unicode hex="25B4"/>
  <outline>
    <contour>
      <point x="45.0" y="276.25" type="line"/>
      <point x="269.5" y="276.25" type="line"/>
      <point x="156.75" y="471.0" type="line"/>
    </contour>
  </outline>
</glyph>
<glyph name="C.ss10" format="2">
  <advance width="585.5"/>
  <anchor x="401.5" y="0.0" name="bottom"/>
  <anchor x="504.5" y="0.0" name="ogonek"/>
  <anchor x="401.5" y="700.0" name="top"/>
  <outline>
    <contour>
      <point x="400.5" y="-13.0" type="curve" smooth="yes"/>
      <point x="458.5" y="-13.0"/>
      <point x="508.75" y="-2.75"/>
      <point x="554.0" y="19.0" type="curve"/>
      <point x="561.25" y="132.25" type="line"/>
      <point x="518.75" y="98.5"/>
      <point x="469.0" y="82.5"/>
      <point x="403.25" y="82.5" type="curve" smooth="yes"/>
      <point x="256.25" y="82.5"/>
      <point x="142.75" y="191.75"/>
      <point x="142.75" y="349.0" type="curve" smooth="yes"/>
      <point x="142.75" y="505.0"/>
      <point x="247.25" y="617.5"/>
      <point x="400.5" y="617.5" type="curve" smooth="yes"/>
      <point x="462.5" y="617.5"/>
      <point x="518.0" y="601.5"/>
      <point x="564.0" y="560.5" type="curve"/>
      <point x="564.0" y="673.75" type="line"/>
      <point x="518.0" y="700.5"/>
      <point x="462.25" y="713.0"/>
      <point x="400.5" y="713.0" type="curve" smooth="yes"/>
      <point x="193.5" y="713.0"/>
      <point x="41.25" y="552.25"/>
      <point x="41.25" y="349.0" type="curve" smooth="yes"/>
      <point x="41.25" y="146.0"/>
      <point x="197.0" y="-13.0"/>
    </contour>
  </outline>
</glyph>
<glyph name="G.ss02" format="2">
  <advance width="774.5"/>
  <anchor x="396.75" y="0.0" name="bottom"/>
  <anchor x="524.5" y="9.0" name="ogonek"/>
  <anchor x="396.75" y="700.0" name="top"/>
  <outline>
    <contour>
      <point x="396.25" y="-13.0" type="curve" smooth="yes"/>
      <point x="598.0" y="-13.0"/>
      <point x="733.25" y="126.5"/>
      <point x="733.25" y="321.25" type="curve" smooth="yes"/>
      <point x="733.25" y="339.5"/>
      <point x="732.0" y="360.0"/>
      <point x="729.75" y="374.25" type="curve"/>
      <point x="363.25" y="374.25" type="line"/>
      <point x="363.25" y="286.25" type="line"/>
      <point x="666.5" y="287.0" type="line"/>
      <point x="634.5" y="309.75" type="line"/>
      <point x="630.75" y="170.5"/>
      <point x="537.25" y="78.5"/>
      <point x="397.75" y="78.5" type="curve" smooth="yes"/>
      <point x="245.5" y="78.5"/>
      <point x="142.75" y="195.5"/>
      <point x="142.75" y="349.0" type="curve" smooth="yes"/>
      <point x="142.75" y="502.5"/>
      <point x="241.0" y="621.5"/>
      <point x="397.75" y="621.5" type="curve" smooth="yes"/>
      <point x="479.0" y="621.5"/>
      <point x="541.5" y="594.75"/>
      <point x="587.0" y="539.0" type="curve"/>
      <point x="657.75" y="602.5" type="line"/>
      <point x="589.0" y="680.5"/>
      <point x="510.25" y="713.0"/>
      <point x="396.25" y="713.0" type="curve" smooth="yes"/>
      <point x="187.5" y="713.0"/>
      <point x="41.25" y="553.75"/>
      <point x="41.25" y="349.0" type="curve" smooth="yes"/>
      <point x="41.25" y="145.25"/>
      <point x="190.5" y="-13.0"/>
    </contour>
  </outline>
</glyph>
<glyph name="a.ss01" format="2">
  <advance width="621.0"/>
  <anchor x="297.75" y="0.0" name="bottom"/>
  <anchor x="457.25" y="0.0" name="ogonek"/>
  <anchor x="293.25" y="493.75" name="top"/>
  <outline>
    <contour>
      <point x="283.25" y="-13.0" type="curve" smooth="yes"/>
      <point x="370.25" y="-13.0"/>
      <point x="425.0" y="29.25"/>
      <point x="453.75" y="89.0" type="curve"/>
      <point x="459.75" y="89.0" type="line"/>
      <point x="459.75" y="0.0" type="line"/>
      <point x="549.5" y="0.0" type="line"/>
      <point x="549.5" y="493.75" type="line"/>
      <point x="459.75" y="493.75" type="line"/>
      <point x="459.75" y="406.5" type="line"/>
      <point x="453.75" y="406.5" type="line"/>
      <point x="425.0" y="465.25"/>
      <point x="367.25" y="506.75"/>
      <point x="283.25" y="506.75" type="curve" smooth="yes"/>
      <point x="141.0" y="506.75"/>
      <point x="37.0" y="395.25"/>
      <point x="37.0" y="246.0" type="curve" smooth="yes"/>
      <point x="37.0" y="97.0"/>
      <point x="141.0" y="-13.0"/>
    </contour>
    <contour>
      <point x="294.75" y="73.25" type="curve" smooth="yes"/>
      <point x="194.75" y="73.25"/>
      <point x="130.75" y="147.75"/>
      <point x="130.75" y="247.0" type="curve" smooth="yes"/>
      <point x="130.75" y="347.5"/>
      <point x="194.75" y="419.75"/>
      <point x="294.75" y="419.75" type="curve" smooth="yes"/>
      <point x="392.5" y="419.75"/>
      <point x="458.0" y="338.5"/>
      <point x="458.0" y="246.0" type="curve" smooth="yes"/>
      <point x="458.0" y="149.25"/>
      <point x="392.5" y="73.25"/>
    </contour>
  </outline>
</glyph>
<glyph name="c.ss10" format="2">
  <advance width="435.0"/>
  <anchor x="281.75" y="0.0" name="bottom"/>
  <anchor x="378.75" y="0.0" name="ogonek"/>
  <anchor x="281.75" y="493.75" name="top"/>
  <outline>
    <contour>
      <point x="304.0" y="-13.25" type="curve" smooth="yes"/>
      <point x="331.5" y="-13.25"/>
      <point x="364.5" y="-6.75"/>
      <point x="405.25" y="8.0" type="curve"/>
      <point x="411.75" y="108.75" type="line"/>
      <point x="372.75" y="85.0"/>
      <point x="340.5" y="77.0"/>
      <point x="307.0" y="77.0" type="curve" smooth="yes"/>
      <point x="203.75" y="77.0"/>
      <point x="130.75" y="146.25"/>
      <point x="130.75" y="247.25" type="curve" smooth="yes"/>
      <point x="130.75" y="346.25"/>
      <point x="200.75" y="415.75"/>
      <point x="304.0" y="415.75" type="curve" smooth="yes"/>
      <point x="344.25" y="415.75"/>
      <point x="373.75" y="409.0"/>
      <point x="409.0" y="389.5" type="curve"/>
      <point x="409.0" y="487.75" type="line"/>
      <point x="382.5" y="497.25"/>
      <point x="345.75" y="506.75"/>
      <point x="301.75" y="506.75" type="curve" smooth="yes"/>
      <point x="143.75" y="506.75"/>
      <point x="37.0" y="392.5"/>
      <point x="37.0" y="247.25" type="curve" smooth="yes"/>
      <point x="37.0" y="101.0"/>
      <point x="145.25" y="-13.25"/>
    </contour>
  </outline>
</glyph>
<glyph name="germandbls.ss10" format="2">
  <advance width="665.25"/>
  <outline>
    <contour>
      <point x="17.75" y="409.75" type="line"/>
      <point x="164.5" y="409.75" type="line"/>
      <point x="164.5" y="493.75" type="line"/>
      <point x="17.75" y="493.75" type="line"/>
    </contour>
    <component base="germandbls" xOffset="45.75"/>
  </outline>
</glyph>
<glyph name="gravecomb.case" format="2">
  <anchor x="0.0" y="700.0" name="_top"/>
  <anchor x="0.0" y="812.5" name="top"/>
  <outline>
    <contour>
      <point x="-9.5" y="740.0" type="line"/>
      <point x="17.25" y="769.25" type="line"/>
      <point x="-52.5" y="854.0" type="line"/>
      <point x="-94.5" y="824.75" type="line"/>
    </contour>
  </outline>
</glyph>
<glyph name="macroncomb.case" format="2">
  <anchor x="0.0" y="700.0" name="_top"/>
  <anchor x="0.0" y="788.25" name="top"/>
  <outline>
    <contour>
      <point x="-134.0" y="740.0" type="line"/>
      <point x="134.75" y="740.0" type="line"/>
      <point x="134.75" y="801.5" type="line"/>
      <point x="-134.0" y="801.5" type="line"/>
    </contour>
  </outline>
</glyph>
<glyph name="nine.numr" format="2">
  <advance width="324.5"/>
  <outline>
    <contour>
      <point x="83.5" y="313.0" type="line"/>
      <point x="155.0" y="313.0" type="line"/>
      <point x="255.25" y="476.25" type="line" smooth="yes"/>
      <point x="275.25" y="507.5"/>
      <point x="291.25" y="541.5"/>
      <point x="291.25" y="579.0" type="curve" smooth="yes"/>
      <point x="291.25" y="657.5"/>
      <point x="234.0" y="706.0"/>
      <point x="158.5" y="706.0" type="curve" smooth="yes"/>
      <point x="86.5" y="706.0"/>
      <point x="26.5" y="659.5"/>
      <point x="26.5" y="578.25" type="curve" smooth="yes"/>
      <point x="26.5" y="482.75"/>
      <point x="110.0" y="441.75"/>
      <point x="175.5" y="464.25" type="curve"/>
    </contour>
    <contour>
      <point x="155.75" y="508.5" type="curve" smooth="yes"/>
      <point x="117.0" y="508.5"/>
      <point x="88.5" y="538.0"/>
      <point x="88.5" y="579.0" type="curve" smooth="yes"/>
      <point x="88.5" y="627.5"/>
      <point x="121.25" y="650.5"/>
      <point x="158.5" y="650.5" type="curve" smooth="yes"/>
      <point x="196.0" y="650.5"/>
      <point x="228.25" y="625.5"/>
      <point x="228.25" y="578.25" type="curve" smooth="yes"/>
      <point x="228.25" y="535.0"/>
      <point x="199.0" y="508.5"/>
    </contour>
  </outline>
</glyph>
<glyph name="quotesingle.ss04" format="2">
  <advance width="206.5"/>
  <outline>
    <contour>
      <point x="80.25" y="456.75" type="line"/>
      <point x="125.25" y="456.75" type="line"/>
      <point x="151.25" y="646.75" type="line" smooth="yes"/>
      <point x="155.5" y="677.0"/>
      <point x="141.25" y="713.0"/>
      <point x="103.75" y="713.0" type="curve" smooth="yes"/>
      <point x="66.25" y="713.0"/>
      <point x="48.75" y="685.25"/>
      <point x="54.5" y="646.75" type="curve" smooth="yes"/>
    </contour>
  </outline>
</glyph>
